# AST/ASF file generated using VICON BodyLanguage
# -----------------------------------------------
:version 1.10
:name VICON
:units
  mass 1.0
  length 0.45
  angle deg
:documentation
   .ast/.asf automatically generated from VICON data using
   VICON BodyBuilder and BodyLanguage model FoxedUp or BRILLIANT.MOD
:root
   order TX TY TZ RX RY RZ
   axis XYZ
   position 0 0 0  
   orientation 0 0 0 
:bonedata
  begin
     id 1 
     name lhipjoint
     direction 0.624716 -0.669793 0.401383 
     length 2.38238 
     axis 0 0 0  XYZ
  end
  begin
     id 2 
     name lfemur
     direction 0.34202 -0.939693 0  
     length 6.4574  
     axis 0 0 20  XYZ
    dof rx ry rz
    limits (-160.0 20.0)
           (-70.0 70.0)
           (-60.0 70.0)
  end
  begin
     id 3 
     name ltibia
     direction 0.34202 -0.939693 0   
     length 7.68739   
     axis 0 0 20   XYZ
    dof rx
    limits (-10.0 170.0)
  end
  begin
     id 4 
     name lfoot
     direction 0.0681309 -0.187188 0.979959   
     length 2.46615   
     axis -90 7.62852e-016 20   XYZ
    dof rx rz
    limits (-45.0 90.0)
           (-70.0 20.0)
  end
  begin
     id 5 
     name ltoes
     direction 1.53566e-011 -4.21819e-011 1   
     length 1.2376   
     axis -90 7.62852e-016 20   XYZ
    dof rx
    limits (-90.0 20.0)
  end
  begin
     id 6 
     name rhipjoint
     direction -0.644473 -0.655875 0.393043   
     length 2.43293  
     axis 0 0 0  XYZ 
  end
  begin
     id 7 
     name rfemur
     direction -0.34202 -0.939693 0   
     length 6.7025   
     axis 0 0 -20   XYZ
    dof rx ry rz
    limits (-160.0 20.0)
           (-70.0 70.0)
           (-70.0 60.0)
  end
  begin
     id 8 
     name rtibia
     direction -0.34202 -0.939693 0   
     length 7.80547   
     axis 0 0 -20   XYZ
    dof rx
    limits (-10.0 170.0)
 end
 begin
     id 9 
     name rfoot
     direction -0.0756734 -0.207911 0.975216   
     length 2.40315  
     axis -90 -7.62852e-016 -20   XYZ
    dof rx rz
    limits (-45.0 90.0)
           (-20.0 70.0)
  end
  begin
     id 10 
     name rtoes
     direction -1.5353e-011 -4.21879e-011 1   
     length 1.20477   
     axis -90 -7.62852e-016 -20   XYZ
    dof rx
    limits (-90.0 20.0)
  end
  begin
     id 11 
     name lowerback
     direction 0.0160353 0.987463 -0.157037   
     length 2.18572   
     axis 0 0 0   XYZ
    dof rx ry rz
    limits (-20.0 45.0)
           (-30.0 30.0)
           (-30.0 30.0)
  end
  begin
     id 12 
     name upperback
     direction -0.00499661 0.999756 0.0215076   
     length 2.18016   
     axis 0 0 0   XYZ
    dof rx ry rz
    limits (-20.0 45.0)
           (-30.0 30.0)
           (-30.0 30.0)
  end
  begin
     id 13 
     name thorax
     direction -0.00921346 0.995333 0.0960619   
     length 2.24923   
     axis 0 0 0   XYZ
    dof rx ry rz
    limits (-20.0 45.0)
           (-30.0 30.0)
           (-30.0 30.0)
  end
  begin
     id 14 
     name lowerneck
     direction 0.0274184 0.991181 0.12965   
     length 1.70911   
     axis 0 0 0   XYZ
    dof rx ry rz
    limits (-20.0 45.0)
           (-30.0 30.0)
           (-30.0 30.0)
  end
  begin
     id 15 
     name upperneck
     direction 0.0015627 0.999959 -0.00893559   
     length 1.69312   
     axis 0 0 0   XYZ
    dof rx ry rz
    limits (-20.0 45.0)
           (-30.0 30.0)
           (-30.0 30.0)
  end
  begin
     id 16
     name head
     direction -0.00230242 0.999856 -0.0168327  
     length 1.80241  
     axis 0 0 0   XYZ
    dof rx ry rz
    limits (-20.0 45.0)
           (-30.0 30.0)
           (-30.0 30.0)
  end
  begin
     id 17 
     name lclavicle
     direction 0.955523 0.290741 -0.0494489  
     length 3.84275  
     axis 0 0 0   XYZ
    dof ry rz
    limits (-20.0 10.0)
           (0.0 20.0)
  end
  begin
     id 18 
     name lhumerus
     direction 1 -4.48967e-011 -3.18382e-028   
     length 5.17714   
     axis 180 -30 -90   XYZ
    dof rx ry rz
    limits (-60.0 90.0)
           (-90.0 90.0)
           (-90.0 90.0)
  end
  begin
     id 19
     name lradius
     direction 1 -4.48968e-011 -2.22911e-027   
     length 3.43679   
     axis 180 -30 -90   XYZ
    dof rx
    limits (-10.0 170.0)
  end
  begin
     id 20
     name lwrist
     direction 1 -4.48951e-011 -6.32245e-027   
     length 1.7184   
     axis 3.57107e-015 90 90   XYZ
    dof ry
    limits (-180.0 0.0)
 end
  begin
     id 21 
     name lhand
     direction 1 -4.48924e-011 -1.26431e-026   
     length 0.573117   
     axis 8.06912e-015 90 90   XYZ
    dof rx rz
    limits (-90.0 90.0)
           (-45.0 45.0)
  end
  begin
     id 22 
     name lfingers
     direction 1 -4.49001e-011 -2.52965e-026   
     length 0.462062   
     axis 1.61381e-014 90 90   XYZ
    dof rx
    limits (0.0 90.0)
  end
  begin
     id 23
     name lthumb
     direction 0.707107 -6.35008e-011 0.707107   
     length 0.663431   
     axis -90 45 -1.62303e-014   XYZ
    dof rx rz
    limits (-45.0 45.0)
           (-45.0 45.0)
  end
  begin
     id 24 
     name rclavicle
     direction -0.963917 0.256881 -0.0698287   
     length 3.73057  
     axis 0 0 0   XYZ 
    dof ry rz
    limits (-10.0 20.0)
           (-20.0 0.0)
  end
  begin
     id 25 
     name rhumerus
     direction -1 -4.48962e-011 -2.73982e-027  
     length 5.23908   
     axis 180 30 90   XYZ
    dof rx ry rz
    limits (-90.0 60.0)
           (-90.0 90.0)
           (-90.0 90.0)
  end
  begin
     id 26 
     name rradius
     direction -1 -4.48968e-011 -4.33218e-027   
     length 3.46485   
     axis 180 30 90   XYZ
    dof rx
    limits (-10.0 170.0)
  end
  begin
     id 27 
     name rwrist
     direction -1 -4.48989e-011 -6.32372e-027   
     length 1.73243   
     axis 3.57107e-015 -90 -90   XYZ
    dof ry
    limits (-180.0 0.0)
  end
  begin
     id 28
     name rhand
     direction -1 -4.48948e-011 -1.26448e-026   
     length 0.608752   
     axis 8.06912e-015 -90 -90   XYZ
    dof rx rz
    limits (-90.0 90.0)
           (-45.0 45.0)
  end
  begin
     id 29
     name rfingers
     direction -1 -4.48962e-011 -2.52913e-026   
     length 0.490792   
     axis 1.61381e-014 -90 -90   XYZ
    dof rx
    limits (0.0 90.0)
  end
  begin
     id 30
     name rthumb
     direction -0.707107 -6.34878e-011 0.707107   
     length 0.704682   
     axis -90 -45 1.62303e-014   XYZ
    dof rx rz
    limits (-45.0 45.0)
           (-45.0 45.0)
  end
:hierarchy
  begin
    root lhipjoint rhipjoint lowerback
    lhipjoint lfemur
    lfemur ltibia
    ltibia lfoot
    lfoot ltoes
    rhipjoint rfemur
    rfemur rtibia
    rtibia rfoot
    rfoot rtoes
    lowerback upperback
    upperback thorax
    thorax lowerneck lclavicle rclavicle
    lowerneck upperneck
    upperneck head
    lclavicle lhumerus
    lhumerus lradius
    lradius lwrist
    lwrist lhand lthumb
    lhand lfingers
    rclavicle rhumerus
    rhumerus rradius
    rradius rwrist
    rwrist rhand rthumb
    rhand rfingers
  end

#!OML:ASF G:\JayActor3\Patient Classification 1\Patient 1\Session 6\male.ASF
:FULLY-SPECIFIED
:DEGREES
843
root 27.8248 14.22 -15.4323 13.8063 -64.8441 3.24609
lowerback 37.8317 -1.83337 6.39289
upperback 20.0876 -2.31149 1.39295
thorax 3.52405 -1.43455 -1.20924
lowerneck 4.01849 -1.07909 1.35632
upperneck -21.7118 -1.25426 2.18435
head -7.2968 -1.1023 0.601325
rclavicle -4.77083e-015 4.51241e-014
rhumerus 4.93334 10.6723 -74.3151
rradius 73.0733
rwrist -6.11235
rhand -27.3515 -11.5259
rfingers 7.12502
rthumb -0.759612 -41.5043
lclavicle -4.77083e-015 4.51241e-014
lhumerus 1.58474 -8.15073 55.2855
lradius 68.6174
lwrist 27.8758
lhand -15.0821 9.33765
lfingers 7.12502
lthumb 11.0856 39.0249
rfemur -63.251 -8.30753 22.7913
rtibia 76.381
rfoot -29.5754 -16.7726
rtoes -2.40907
lfemur -63.0061 9.39172 -24.4947
ltibia 81.7924
lfoot -17.4574 5.92342
ltoes -9.95853
844
root 27.7841 14.2267 -15.4381 13.928 -64.6204 3.13767
lowerback 37.8419 -1.85278 6.48525
upperback 20.0841 -2.29926 1.50138
thorax 3.52414 -1.42755 -1.14553
lowerneck 4.01953 -1.11866 1.41822
upperneck -21.6285 -1.29528 2.21431
head -7.26996 -1.12747 0.602714
rclavicle 6.2816e-014 6.84813e-014
rhumerus 4.94811 10.655 -74.1854
rradius 73.1969
rwrist -6.24352
rhand -27.4082 -11.4268
rfingers 7.12502
rthumb -0.814347 -41.405
lclavicle 6.2816e-014 6.84813e-014
lhumerus 1.03778 -8.19429 55.2281
lradius 68.5316
lwrist 27.791
lhand -14.8202 9.24748
lfingers 7.12502
lthumb 11.3381 38.921
rfemur -63.0361 -8.34279 22.913
rtibia 76.3202
rfoot -29.774 -16.9007
rtoes -2.42352
lfemur -63.6937 9.27623 -24.3175
ltibia 82.5314
lfoot -16.4792 6.04401
ltoes -8.68785
845
root 27.7435 14.232 -15.4428 14.0495 -64.4051 3.02588
lowerback 37.8608 -1.86299 6.57284
upperback 20.0766 -2.27639 1.60236
thorax 3.51713 -1.41529 -1.08991
lowerneck 4.03397 -1.1643 1.48316
upperneck -21.5212 -1.34211 2.25154
head -7.23767 -1.15545 0.606175
rclavicle -1.74931e-014 2.55438e-014
rhumerus 4.92937 10.6217 -74.0595
rradius 73.3328
rwrist -6.39513
rhand -27.4778 -11.3169
rfingers 7.12502
rthumb -0.881522 -41.2948
lclavicle -1.74931e-014 2.55438e-014
lhumerus 0.524063 -8.2219 55.1659
lradius 68.4357
lwrist 27.7823
lhand -14.5962 9.16189
lfingers 7.12502
lthumb 11.5542 38.8234
rfemur -62.8308 -8.39125 23.041
rtibia 76.2749
rfoot -29.9805 -17.0067
rtoes -2.41079
lfemur -64.3697 9.20217 -24.1915
ltibia 83.179
lfoot -15.7 6.25862
ltoes -7.38999
846
root 27.7028 14.2372 -15.4464 14.1654 -64.2146 2.92552
lowerback 37.8742 -1.85496 6.64346
upperback 20.0723 -2.23813 1.69462
thorax 3.51549 -1.39614 -1.0396
lowerneck 4.04393 -1.21454 1.53896
upperneck -21.3928 -1.39501 2.29561
head -7.19755 -1.18553 0.613507
rclavicle -5.56597e-015 3.62782e-014
rhumerus 4.89369 10.5683 -73.9328
rradius 73.4725
rwrist -6.54611
rhand -27.5421 -11.2265
rfingers 7.12502
rthumb -0.943701 -41.2041
lclavicle -5.56597e-015 3.62782e-014
lhumerus 0.0499907 -8.22601 55.1048
lradius 68.3317
lwrist 27.8434
lhand -14.4251 9.08951
lfingers 7.12502
lthumb 11.7192 38.7417
rfemur -62.6382 -8.43841 23.1668
rtibia 76.238
rfoot -30.1955 -17.0987
rtoes -2.3788
lfemur -65.0194 9.17145 -24.1283
ltibia 83.6823
lfoot -15.1748 6.55246
ltoes -6.23204
847
root 27.6632 14.2412 -15.4479 14.2821 -64.0901 2.85029
lowerback 37.8665 -1.81836 6.68148
upperback 20.0688 -2.17807 1.76023
thorax 3.52011 -1.36671 -1.00788
lowerneck 4.0804 -1.26105 1.6027
upperneck -21.2714 -1.44207 2.33178
head -7.16467 -1.21259 0.616779
rclavicle -3.49861e-014 -3.69739e-014
rhumerus 4.84513 10.5015 -73.8199
rradius 73.609
rwrist -6.67647
rhand -27.5841 -11.1831
rfingers 7.12502
rthumb -0.984211 -41.1605
lclavicle -3.49861e-014 -3.69739e-014
lhumerus -0.397307 -8.20703 55.0315
lradius 68.226
lwrist 27.9689
lhand -14.3184 9.04459
lfingers 7.12502
lthumb 11.8221 38.6909
rfemur -62.4942 -8.46225 23.2754
rtibia 76.2152
rfoot -30.3999 -17.1647
rtoes -2.33382
lfemur -65.6656 9.19467 -24.1498
ltibia 84.0055
lfoot -14.9308 6.90904
ltoes -5.38791
848
root 27.6243 14.2445 -15.4474 14.3826 -64.0139 2.8151
lowerback 37.842 -1.76193 6.69119
upperback 20.0719 -2.10587 1.80215
thorax 3.53632 -1.33152 -0.990957
lowerneck 4.12753 -1.30141 1.66136
upperneck -21.1695 -1.4821 2.36062
head -7.14015 -1.23557 0.618332
rclavicle -2.14687e-014 -8.15017e-015
rhumerus 4.80117 10.419 -73.7198
rradius 73.736
rwrist -6.77207
rhand -27.6022 -11.1924
rfingers 7.12502
rthumb -1.00173 -41.1697
lclavicle -2.14687e-014 -8.15017e-015
lhumerus -0.811832 -8.15492 54.95
lradius 68.1226
lwrist 28.1381
lhand -14.2787 9.04264
lfingers 7.12502
lthumb 11.8604 38.6867
rfemur -62.3892 -8.47816 23.3634
rtibia 76.2067
rfoot -30.5964 -17.212
rtoes -2.29653
lfemur -66.2946 9.24759 -24.2507
ltibia 84.1097
lfoot -14.9518 7.24992
ltoes -4.87598
849
root 27.5864 14.2469 -15.4448 14.483 -63.9779 2.8001
lowerback 37.8081 -1.69521 6.68698
upperback 20.0823 -2.02838 1.8208
thorax 3.56257 -1.29296 -0.993441
lowerneck 4.18844 -1.33282 1.70565
upperneck -21.105 -1.51059 2.3905
head -7.1302 -1.25288 0.622385
rclavicle -3.18055e-015 -3.3197e-014
rhumerus 4.77061 10.3288 -73.6334
rradius 73.8505
rwrist -6.81739
rhand -27.6126 -11.2459
rfingers 7.12502
rthumb -1.01173 -41.2232
lclavicle -3.18055e-015 -3.3197e-014
lhumerus -1.19827 -8.06404 54.8581
lradius 68.0295
lwrist 28.3426
lhand -14.302 9.0708
lfingers 7.12502
lthumb 11.8379 38.7162
rfemur -62.3226 -8.49169 23.4388
rtibia 76.2157
rfoot -30.7811 -17.2498
rtoes -2.28435
lfemur -66.9088 9.32252 -24.4196
ltibia 83.9756
lfoot -15.1918 7.51756
ltoes -4.76645
850
root 27.5485 14.2479 -15.4408 14.5664 -63.9557 2.81905
lowerback 37.767 -1.62478 6.66799
upperback 20.1003 -1.95278 1.8224
thorax 3.59832 -1.25493 -1.00608
lowerneck 4.26461 -1.3588 1.73456
upperneck -21.0849 -1.53211 2.42417
head -7.13721 -1.26714 0.630457
rclavicle -1.43125e-014 5.76476e-015
rhumerus 4.75896 10.2306 -73.559
rradius 73.948
rwrist -6.82275
rhand -27.6159 -11.3328
rfingers 7.12502
rthumb -1.01498 -41.3101
lclavicle -1.43125e-014 5.76476e-015
lhumerus -1.55995 -7.93986 54.757
lradius 67.9496
lwrist 28.5643
lhand -14.3883 9.11377
lfingers 7.12502
lthumb 11.7547 38.7639
rfemur -62.287 -8.51669 23.4999
rtibia 76.2471
rfoot -30.9708 -17.2644
rtoes -2.25494
lfemur -67.5037 9.40042 -24.6484
ltibia 83.5974
lfoot -15.6042 7.63893
ltoes -4.94044
851
root 27.5097 14.2475 -15.4357 14.6363 -63.9171 2.85566
lowerback 37.7329 -1.56309 6.64345
upperback 20.1244 -1.88957 1.81511
thorax 3.63789 -1.22268 -1.02144
lowerneck 4.3478 -1.38076 1.74509
upperneck -21.1033 -1.54822 2.46758
head -7.15779 -1.27936 0.644969
rclavicle -2.70347e-014 5.82439e-014
rhumerus 4.76805 10.1367 -73.4988
rradius 74.0299
rwrist -6.81043
rhand -27.6788 -11.4045
rfingers 7.12502
rthumb -1.07573 -41.3815
lclavicle -2.70347e-014 5.82439e-014
lhumerus -1.90363 -7.78048 54.6436
lradius 67.8871
lwrist 28.795
lhand -14.5268 9.17188
lfingers 7.12502
lthumb 11.6211 38.8296
rfemur -62.2616 -8.56439 23.5584
rtibia 76.3004
rfoot -31.1778 -17.272
rtoes -2.21233
lfemur -68.0655 9.4694 -24.9197
ltibia 82.9816
lfoot -16.1249 7.60188
ltoes -5.3942
